<svg width="72" height="72" viewBox="0 0 72 72" fill="none" xmlns="http://www.w3.org/2000/svg">
<path d="M36.374 14.2058C36.3407 13.7416 35.6593 13.7416 35.626 14.2058L34.5185 29.6191L31.7176 24.0281C31.5091 23.612 30.8796 23.8727 31.0264 24.3143L33.2765 31.082L20.8536 20.3247C20.5018 20.02 20.02 20.5018 20.3247 20.8536L30.6338 32.7589L24.5909 30.7498C24.1493 30.603 23.8886 31.2325 24.3047 31.441L30.3439 34.4664L14.2058 35.626C13.7416 35.6593 13.7416 36.3407 14.2058 36.374L30.3143 37.5314L24.3047 40.5421C23.8886 40.7505 24.1493 41.3801 24.5909 41.2332L30.6544 39.2173L20.3247 51.1464C20.02 51.4982 20.5018 51.98 20.8536 51.6753L33.2686 40.9249L31.0264 47.6687C30.8796 48.1103 31.5091 48.3711 31.7176 47.955L34.5174 42.3661L35.626 57.7942C35.6593 58.2584 36.3407 58.2584 36.374 57.7942L37.5498 41.4299L40.8187 47.955C41.0272 48.3711 41.6567 48.1103 41.5098 47.6687L39.4845 41.577L51.1464 51.6753C51.4982 51.98 51.98 51.4982 51.6753 51.1464L41.1288 38.9669L47.9453 41.2332C48.3869 41.3801 48.6477 40.7505 48.2316 40.5421L42.1547 37.4977L57.7942 36.374C58.2584 36.3407 58.2584 35.6593 57.7942 35.626L42.1251 34.5001L48.2316 31.441C48.6477 31.2325 48.3869 30.603 47.9453 30.7498L41.1494 33.0093L51.6753 20.8536C51.98 20.5018 51.4982 20.02 51.1464 20.3247L39.4766 30.4299L41.5098 24.3143C41.6567 23.8727 41.0271 23.612 40.8187 24.0281L37.5488 30.5553L36.374 14.2058Z" fill="#FE4C60"/>
</svg>
