<svg width="80" height="61" viewBox="0 0 80 61" fill="none" xmlns="http://www.w3.org/2000/svg">
<path d="M5.45452 60.0152H18.1817V29.1062L0 15.4698V54.5607C0 57.5788 2.44544 60.0152 5.45452 60.0152Z" fill="#4285F4"/>
<path d="M61.8183 60.0152H74.5455C77.5637 60.0152 80 57.5697 80 54.5607V15.4698L61.8183 29.1062" fill="#34A853"/>
<path d="M61.8183 5.47001V29.1062L80 15.4698V8.19728C80 1.45183 72.3 -2.39361 66.9092 1.65183" fill="#FBBC05"/>
<path d="M18.1817 29.1062L18.1813 5.46983L39.9994 21.8334L61.8183 5.47001V29.1062L39.9994 45.4698" fill="#EA4335"/>
<path d="M0 8.19728V15.4698L18.1817 29.1062L18.1813 5.46983L13.0908 1.65183C7.69087 -2.39361 0 1.45183 0 8.19728Z" fill="#C5221F"/>
</svg>
