<svg width="95" height="80" viewBox="0 0 95 80" fill="none" xmlns="http://www.w3.org/2000/svg">
<path d="M88.7853 69.1664C87.3532 69.1802 85.9849 69.7605 84.9796 70.7804C83.9742 71.8004 83.4137 73.177 83.4205 74.6091C83.4274 76.0412 84.0012 77.4124 85.0163 78.4226C86.0314 79.4329 87.4053 80 88.8374 80C90.2696 80 91.6434 79.4329 92.6585 78.4226C93.6736 77.4124 94.2474 76.0412 94.2543 74.6091C94.2612 73.177 93.7006 71.8004 92.6953 70.7804C91.69 69.7605 90.3216 69.1802 88.8895 69.1664H88.7853ZM88.7853 79.3798C87.846 79.3955 86.9231 79.1322 86.1334 78.6234C85.3437 78.1145 84.7227 77.3829 84.3488 76.5211C83.9748 75.6592 83.8649 74.7059 84.0328 73.7816C84.2007 72.8573 84.639 72.0035 85.2921 71.3282C85.9452 70.653 86.7839 70.1866 87.7022 69.988C88.6204 69.7894 89.5769 69.8675 90.4507 70.2125C91.3245 70.5575 92.0763 71.1539 92.6112 71.9262C93.1461 72.6985 93.4399 73.6121 93.4555 74.5514V74.6311C93.4818 75.8634 93.0177 77.0556 92.1651 77.9456C91.3125 78.8357 90.1414 79.3507 88.9092 79.3774H88.7865M67.9918 67.6865H56.2212V49.2532C56.2212 44.8576 56.1427 39.1991 50.0993 39.1991C43.9687 39.1991 43.0307 43.9883 43.0307 48.9332V67.6852H31.2601V29.7789H42.5599V34.9592H42.7181C43.8489 33.0257 45.483 31.4351 47.4463 30.3568C49.4097 29.2786 51.6287 28.753 53.8671 28.8361C65.7971 28.8361 67.9967 36.6831 67.9967 46.8917L67.9918 67.6865ZM17.979 24.5974C16.628 24.5977 15.3073 24.1973 14.1839 23.4469C13.0604 22.6966 12.1848 21.6299 11.6675 20.3819C11.1503 19.1338 11.0148 17.7605 11.2781 16.4354C11.5415 15.1103 12.1918 13.8931 13.1469 12.9377C14.102 11.9822 15.319 11.3314 16.644 11.0676C17.9689 10.8038 19.3424 10.9389 20.5906 11.4556C21.8388 11.9724 22.9058 12.8477 23.6565 13.9709C24.4073 15.094 24.8081 16.4146 24.8084 17.7656C24.8085 18.6626 24.632 19.5508 24.2889 20.3796C23.9458 21.2084 23.4428 21.9615 22.8086 22.5959C22.1744 23.2303 21.4215 23.7336 20.5929 24.077C19.7642 24.4204 18.876 24.5973 17.979 24.5974ZM23.8643 67.6865H12.0814V29.7789H23.8643V67.6865ZM73.8599 0.00541025H6.16669C4.63024 -0.0119285 3.14977 0.581428 2.05058 1.65509C0.951397 2.72876 0.323439 4.1949 0.304688 5.73133V73.7054C0.322797 75.2426 0.950365 76.7097 2.04951 77.7845C3.14866 78.8593 4.62948 79.4538 6.16669 79.4375H73.8599C75.4002 79.4568 76.8852 78.864 77.9886 77.7892C79.0921 76.7145 79.7239 75.2457 79.7452 73.7054V5.72642C79.7233 4.18694 79.0911 2.71915 77.9875 1.6455C76.884 0.571865 75.3994 -0.019798 73.8599 0.000505826M89.6448 74.9266C89.8464 74.9286 90.0462 74.8892 90.2319 74.8108C90.4176 74.7324 90.5852 74.6166 90.7244 74.4707C90.8635 74.3248 90.9711 74.1519 91.0406 73.9627C91.1101 73.7734 91.14 73.5719 91.1284 73.3707C91.1284 72.2672 90.4626 71.74 89.0967 71.74H86.8898V77.5174H87.7198V74.999H88.7399L88.7632 75.0296L90.3462 77.5174H91.2339L89.5308 74.9426L89.6448 74.9266ZM88.6848 74.3479H87.7223V72.3947H88.9422C89.5725 72.3947 90.2909 72.4977 90.2909 73.3229C90.2909 74.2719 89.5639 74.3479 88.6799 74.3479" fill="#2867B2"/>
</svg>
