<svg width="176" height="50" viewBox="0 0 176 50" fill="none" xmlns="http://www.w3.org/2000/svg">
<path d="M8.49139 33.0886C9.14646 33.2367 9.81693 33.481 10.5028 33.8213C11.2047 34.1618 11.9225 34.5103 12.6562 34.867C13.39 35.2236 14.132 35.5323 14.8824 35.7931C15.6487 36.0699 16.4158 36.2108 17.1838 36.2157C17.4878 36.2176 17.8 36.1875 18.1204 36.1256C18.4407 36.0796 18.7613 35.9856 19.0822 35.8437C19.0977 35.9238 19.1052 35.9958 19.1048 36.0598C19.1044 36.1238 19.1039 36.1958 19.1034 36.2758C19.1011 36.6438 19.0427 37.0194 18.9283 37.4027C18.8138 37.802 18.6435 38.1609 18.4175 38.4795C18.2075 38.7982 17.9338 39.0605 17.5965 39.2663C17.2591 39.4882 16.8664 39.5977 16.4184 39.5949C15.9064 39.5916 15.3793 39.4523 14.837 39.1769C14.3107 38.9015 13.7609 38.562 13.1874 38.1584C12.6139 37.7548 12.0247 37.311 11.4198 36.8272C10.8147 36.3594 10.1935 35.9234 9.55603 35.5194C8.91857 35.1153 8.26471 34.7752 7.59445 34.499C6.92418 34.2227 6.24505 34.0824 5.55707 34.0781C5.46107 34.0774 5.36507 34.0768 5.26907 34.0762C5.18908 34.0757 5.10103 34.0832 5.00493 34.0986L5.11 17.4909C4.33969 17.854 3.74431 18.3863 3.32386 19.0876C2.91952 19.7731 2.71421 20.6118 2.70793 21.6038C2.7052 22.0358 2.73482 22.412 2.79679 22.7324C2.87487 23.0369 2.95325 23.2934 3.03193 23.5019C3.12661 23.7105 3.2215 23.8871 3.31658 24.0317C3.41177 24.1603 3.48316 24.2567 3.53076 24.321C2.57078 24.315 1.81221 24.0862 1.25505 23.6346C0.697898 23.1831 0.422358 22.4773 0.428431 21.5174C0.433594 20.7014 0.638398 19.9427 1.04284 19.2412C1.44729 18.5397 1.97913 17.9351 2.63835 17.4273C3.31368 16.9035 4.07624 16.5003 4.92605 16.2177C5.79196 15.9192 6.6809 15.7728 7.59288 15.7786C7.76888 15.7797 7.93682 15.7887 8.09672 15.8058C8.27272 15.8069 8.44066 15.8159 8.60056 15.8329L8.49139 33.0886ZM17.4312 31.7291C17.9112 31.7322 18.3356 31.6708 18.7044 31.5452C19.0732 31.4195 19.4022 31.2536 19.6915 31.0474C19.9809 30.8252 20.2466 30.5709 20.4884 30.2844C20.7303 29.982 20.9643 29.6634 21.1904 29.3289L22.0064 29.334C21.7789 29.8926 21.5034 30.4349 21.1801 30.9608C20.8728 31.4869 20.4858 31.9565 20.0192 32.3695C19.5685 32.7827 19.0384 33.1153 18.4288 33.3675C17.8192 33.6196 17.1064 33.7431 16.2904 33.738C15.6024 33.7336 14.9711 33.6256 14.3964 33.414C13.8218 33.2023 13.3198 32.8791 12.8906 32.4444C12.4774 31.9938 12.153 31.4237 11.9174 30.7342C11.6978 30.0288 11.5911 29.1881 11.5973 28.2121C11.6017 27.5242 11.6783 26.7886 11.8273 26.0056C11.9923 25.2066 12.269 24.4723 12.6572 23.8028C13.0455 23.1332 13.569 22.5765 14.2278 22.1327C14.8866 21.6888 15.72 21.4701 16.728 21.4765C17.496 21.4813 18.0872 21.6051 18.5017 21.8477C18.9162 22.0903 19.2184 22.3722 19.4084 22.6935C19.6143 23.0148 19.7324 23.3275 19.7624 23.6317C19.8085 23.936 19.8312 24.1522 19.8303 24.2802C19.8258 25.0001 19.6858 25.6313 19.4104 26.1735C19.1509 26.7159 18.796 27.1777 18.3456 27.5588C17.9112 27.9241 17.4054 28.2089 16.8281 28.4132C16.2669 28.6017 15.6902 28.7101 15.098 28.7383C15.1073 29.8104 15.2784 30.5795 15.6115 31.0456C15.9606 31.4958 16.5672 31.7237 17.4312 31.7291ZM17.9822 24.2925C17.9858 23.7325 17.8923 23.3399 17.7017 23.1147C17.5112 22.8735 17.304 22.7521 17.08 22.7507C16.808 22.749 16.5591 22.8834 16.3334 23.154C16.1078 23.4086 15.9056 23.7593 15.7267 24.2062C15.564 24.6372 15.4248 25.1483 15.309 25.7396C15.2093 26.331 15.1414 26.9465 15.1053 27.5863C15.5055 27.5569 15.8822 27.4552 16.2353 27.2815C16.5885 27.0917 16.894 26.8536 17.1518 26.5673C17.4097 26.2649 17.6119 25.9222 17.7583 25.5391C17.9048 25.156 17.9794 24.7405 17.9822 24.2925ZM24.69 21.6468L24.6384 29.8067C24.6342 30.4787 24.7193 30.9272 24.8939 31.1523C25.0846 31.3615 25.4119 31.4676 25.8759 31.4705C26.3399 31.4735 26.7252 31.2759 27.0317 30.8778C27.3542 30.4799 27.5414 29.9771 27.5932 29.3694L28.6012 29.3757C28.467 30.3509 28.2381 31.1335 27.9143 31.7234C27.5907 32.2974 27.2279 32.7431 26.8259 33.0606C26.424 33.3621 26.0147 33.5595 25.5981 33.6528C25.1815 33.7462 24.8132 33.7919 24.4932 33.7898C23.2612 33.7821 22.3994 33.4406 21.9076 32.7655C21.416 32.0743 21.1737 31.1688 21.1808 30.0488L21.2341 21.625L24.69 21.6468ZM20.9903 18.4314C20.9936 17.9034 21.1805 17.4566 21.5508 17.0909C21.9212 16.7092 22.3704 16.5201 22.8984 16.5234C23.4264 16.5268 23.8732 16.7216 24.2387 17.1079C24.6204 17.4783 24.8096 17.9275 24.8062 18.4555C24.8029 18.9835 24.6081 19.4303 24.2217 19.7958C23.8514 20.1615 23.4023 20.3427 22.8743 20.3393C22.3463 20.336 21.8995 20.1492 21.5338 19.7788C21.1681 19.4085 20.987 18.9594 20.9903 18.4314ZM31.1187 16.8874L31.0367 29.8472C31.0325 30.5192 31.1176 30.9677 31.2922 31.1928C31.4829 31.402 31.8102 31.5081 32.2742 31.511C32.7382 31.514 33.1235 31.3164 33.43 30.9183C33.7525 30.5204 33.9397 30.0175 33.9915 29.4099L34.9995 29.4162C34.8654 30.3914 34.6364 31.174 34.3127 31.7639C33.989 32.3379 33.6262 32.7836 33.2242 33.1011C32.8223 33.4025 32.413 33.5999 31.9964 33.6933C31.5798 33.7867 31.2115 33.8324 30.8915 33.8303C29.6595 33.8225 28.7977 33.4811 28.3059 32.8059C27.8143 32.1148 27.572 31.2093 27.5791 30.0893L27.6597 17.3456L31.1187 16.8874ZM43.9185 21.7685L43.8669 29.9283C43.8626 30.6003 43.9478 31.0489 44.1224 31.274C44.3131 31.4832 44.6404 31.5893 45.1044 31.5922C45.2964 31.5934 45.4566 31.5624 45.585 31.4992C45.4353 32.3943 45.2233 33.025 44.949 33.3913C44.6908 33.7416 44.2257 33.9147 43.5537 33.9104C42.7537 33.9054 42.147 33.7015 41.7335 33.2989C41.3201 32.8963 41.0355 32.3585 40.8797 31.6855C40.75 31.9567 40.5963 32.2277 40.4186 32.4986C40.241 32.7535 40.0235 32.9841 39.7662 33.1905C39.5249 33.3969 39.2358 33.5631 38.899 33.689C38.5782 33.815 38.2018 33.8766 37.7698 33.8738C37.2578 33.8706 36.7544 33.7714 36.2597 33.5763C35.7649 33.3811 35.3109 33.0663 34.8976 32.6316C34.5004 32.1971 34.176 31.6271 33.9244 30.9215C33.689 30.2 33.5745 29.3192 33.5811 28.2792C33.5858 27.5432 33.6706 26.7838 33.8355 26.0008C34.0165 25.2179 34.2851 24.4996 34.6412 23.8458C35.0133 23.1922 35.4887 22.6592 36.0673 22.2468C36.6621 21.8186 37.3754 21.6071 38.2074 21.6124C38.3994 21.6136 38.6073 21.6309 38.8311 21.6643C39.055 21.6817 39.2706 21.7391 39.478 21.8364C39.6855 21.9177 39.8767 22.0469 40.0516 22.224C40.2265 22.3852 40.3611 22.61 40.4553 22.8986L40.4626 21.7466L43.9185 21.7685ZM39.278 23.1072C38.894 23.1047 38.5569 23.2706 38.2668 23.6048C37.9928 23.9231 37.7662 24.3296 37.5871 24.8245C37.424 25.3035 37.3006 25.8387 37.2169 26.4302C37.1333 27.0057 37.0898 27.5574 37.0864 28.0854C37.0811 28.9334 37.1409 29.5978 37.2658 30.0786C37.3909 30.5434 37.5407 30.8883 37.7153 31.1134C37.906 31.3227 38.1051 31.4519 38.3128 31.5012C38.5206 31.5345 38.6965 31.5517 38.8405 31.5526C39.0165 31.5537 39.1928 31.5148 39.3693 31.4359C39.5619 31.3411 39.7307 31.2062 39.8758 31.0311C40.037 30.8561 40.1663 30.6409 40.2639 30.3856C40.3616 30.1302 40.4115 29.8265 40.4137 29.4745L40.4482 24.0266C40.4166 23.9624 40.3771 23.8821 40.3297 23.7858C40.2824 23.6735 40.2111 23.5691 40.1157 23.4725C40.0203 23.3759 39.9008 23.2951 39.7572 23.2302C39.6297 23.1494 39.47 23.1084 39.278 23.1072ZM59.4626 23.0669L62.9906 23.0892L63.0358 15.9373L66.4917 15.9592L66.3782 33.9108L62.9222 33.889L62.9793 24.8652L59.4514 24.8428L59.3943 33.8667L55.9384 33.8448L56.0413 17.5731C55.271 17.9362 54.6757 18.4605 54.2553 19.1458C53.8351 19.8152 53.6219 20.6299 53.6158 21.5898C53.6126 22.1018 53.642 22.518 53.704 22.8384C53.782 23.1429 53.8604 23.3994 53.9391 23.6079C54.0338 23.8165 54.1288 23.9771 54.224 24.0897C54.3193 24.2023 54.3907 24.3068 54.4381 24.4031C53.4781 24.397 52.7195 24.1762 52.1622 23.7407C51.6051 23.2892 51.3298 22.5354 51.3365 21.4794C51.3414 20.7114 51.5459 19.9927 51.9502 19.3233C52.3545 18.6378 52.8863 18.0412 53.5455 17.5333C54.2208 17.0096 54.9835 16.5984 55.8334 16.2998C56.6993 16.0012 57.5882 15.8549 58.5002 15.8606C58.6762 15.8617 58.8441 15.8708 59.004 15.8878C59.18 15.8889 59.348 15.898 59.5079 15.915L59.4626 23.0669ZM73.4228 21.8352C74.5267 21.8421 75.4048 22.1517 76.0569 22.7638C76.7092 23.36 77.1271 24.3226 77.3107 25.6518L77.4787 25.6529C77.7027 25.6543 77.9509 25.6159 78.2234 25.5376C78.5119 25.4594 78.8086 25.3573 79.1134 25.2312C79.4182 25.1052 79.7151 24.955 80.0043 24.7809C80.2934 24.6067 80.5505 24.4243 80.7757 24.2337L81.1316 24.884C80.954 25.1389 80.7285 25.3695 80.4552 25.5757C80.1979 25.7821 79.9007 25.9722 79.5636 26.1461C79.2266 26.304 78.8737 26.4457 78.5049 26.5714C78.1362 26.6811 77.7676 26.7667 77.3992 26.8284C77.4145 26.9405 77.4218 27.0526 77.4211 27.1646C77.4205 27.2606 77.4199 27.3646 77.4191 27.4766C77.4133 28.4045 77.3278 29.276 77.1626 30.091C76.9975 30.89 76.7211 31.5922 76.3333 32.1978C75.9615 32.7874 75.4785 33.2564 74.8843 33.6046C74.2902 33.9369 73.5612 34.1003 72.6972 34.0948C72.1052 34.0911 71.5378 33.9995 70.9949 33.82C70.4681 33.6247 69.998 33.3177 69.5847 32.8991C69.1714 32.4645 68.839 31.9024 68.5873 31.2128C68.3518 30.5073 68.2372 29.6505 68.2436 28.6425C68.2479 27.9545 68.3246 27.219 68.4735 26.4359C68.6226 25.6369 68.8913 24.8946 69.2797 24.209C69.668 23.5234 70.1916 22.9587 70.8504 22.5149C71.5253 22.0552 72.3828 21.8286 73.4228 21.8352ZM73.3834 31.8431C73.7194 31.8452 74.0081 31.7351 74.2495 31.5126C74.5071 31.2742 74.7171 30.9555 74.8796 30.5566C75.0422 30.1416 75.1573 29.6543 75.2249 29.0947C75.3084 28.5352 75.3523 27.9275 75.3564 27.2715L75.3587 26.9115C74.9592 26.829 74.7042 26.6754 74.5936 26.4507C74.483 26.226 74.4286 25.9776 74.4303 25.7056C74.4324 25.3696 74.49 25.114 74.6031 24.9387C74.7163 24.7634 74.861 24.6443 75.0374 24.5814C74.8649 24.0363 74.6511 23.683 74.3961 23.5214C74.1571 23.3598 73.9496 23.2785 73.7736 23.2774C73.4216 23.2752 73.1166 23.4413 72.8585 23.7756C72.6164 24.0941 72.4138 24.5088 72.2506 25.0198C72.0874 25.5148 71.964 26.066 71.8801 26.6735C71.8123 27.2811 71.7766 27.8649 71.773 28.4249C71.7685 29.1448 71.8128 29.7291 71.9059 30.1777C72.0151 30.6264 72.1489 30.9713 72.3074 31.2123C72.4659 31.4533 72.6408 31.6224 72.8322 31.7196C73.0237 31.8008 73.2074 31.842 73.3834 31.8431ZM82.6967 22.0138L82.6873 23.5018C83.0419 23.088 83.4362 22.7225 83.8702 22.4053C84.3044 22.072 84.7774 21.907 85.2894 21.9102C85.5934 21.9122 85.865 21.9779 86.1042 22.1074C86.3593 22.237 86.5743 22.4064 86.749 22.6155C86.9396 22.8247 87.0822 23.0576 87.1765 23.3142C87.287 23.5549 87.3415 23.8033 87.3398 24.0593C87.3376 24.4112 87.2235 24.7385 86.9976 25.0411C86.7878 25.3278 86.4349 25.4696 85.9389 25.4664C85.5709 25.4641 85.3154 25.3825 85.1724 25.2216C85.0295 25.0607 84.9185 24.892 84.8396 24.7154C84.7609 24.5229 84.674 24.3464 84.579 24.1858C84.5 24.0253 84.3485 23.9443 84.1245 23.9429C83.8845 23.9414 83.6439 24.0359 83.4027 24.2263C83.1776 24.4009 82.9362 24.6234 82.6785 24.8938L82.6208 34.0136L79.1648 33.9917L79.2408 21.992L82.6967 22.0138ZM91.7439 18.279L91.7199 22.0709L93.1839 22.0802L93.1778 23.0402L91.7139 23.0309L91.6683 30.2308C91.6641 30.9027 91.7492 31.3513 91.9238 31.5764C92.1145 31.7856 92.4418 31.8917 92.9058 31.8946C93.3698 31.8976 93.7551 31.7 94.0616 31.3019C94.3841 30.904 94.5713 30.4011 94.6231 29.7934L95.6311 29.7998C95.497 30.775 95.268 31.5576 94.9443 32.1475C94.6206 32.7215 94.2578 33.1672 93.8558 33.4847C93.4539 33.7861 93.0446 33.9835 92.628 34.0769C92.2114 34.1703 91.8431 34.2159 91.5231 34.2139C90.2911 34.2061 89.4293 33.8647 88.9375 33.1895C88.4459 32.4984 88.2036 31.5929 88.2107 30.4729L88.2579 23.009L87.49 23.0042L87.496 22.0442L88.264 22.0491L88.285 18.7371L91.7439 18.279ZM100.07 32.252C100.55 32.255 100.975 32.1937 101.343 32.068C101.712 31.9423 102.041 31.7764 102.33 31.5702C102.62 31.3481 102.886 31.0937 103.127 30.8073C103.369 30.5048 103.603 30.1863 103.829 29.8517L104.645 29.8569C104.418 30.4154 104.142 30.9577 103.819 31.4837C103.512 32.0097 103.125 32.4793 102.658 32.8923C102.208 33.3055 101.677 33.6382 101.068 33.8903C100.458 34.1424 99.7454 34.2659 98.9294 34.2608C98.2414 34.2564 97.6101 34.1484 97.0354 33.9368C96.4607 33.7251 95.9588 33.402 95.5295 32.9672C95.1164 32.5166 94.792 31.9466 94.5563 31.2571C94.3368 30.5516 94.2301 29.711 94.2363 28.735C94.2406 28.047 94.3173 27.3115 94.4662 26.5284C94.6313 25.7294 94.9079 24.9952 95.2962 24.3256C95.6844 23.656 96.208 23.0993 96.8668 22.6555C97.5256 22.2117 98.359 21.9929 99.367 21.9993C100.135 22.0042 100.726 22.1279 101.141 22.3705C101.555 22.6132 101.857 22.8951 102.047 23.2163C102.253 23.5376 102.371 23.8503 102.401 24.1545C102.447 24.4588 102.47 24.675 102.469 24.803C102.465 25.523 102.325 26.1541 102.049 26.6964C101.79 27.2387 101.435 27.7005 100.985 28.0817C100.55 28.4469 100.044 28.7317 99.4671 28.9361C98.9059 29.1245 98.3292 29.2329 97.737 29.2611C97.7462 30.3332 97.9174 31.1023 98.2504 31.5684C98.5996 32.0186 99.2062 32.2465 100.07 32.252ZM100.621 24.8153C100.625 24.2553 100.531 23.8627 100.341 23.6375C100.15 23.3963 99.9429 23.275 99.7189 23.2736C99.4469 23.2718 99.1981 23.4063 98.9724 23.6768C98.7468 23.9314 98.5445 24.2821 98.3657 24.729C98.203 25.16 98.0637 25.6711 97.948 26.2624C97.8482 26.8538 97.7803 27.4694 97.7443 28.1092C98.1445 28.0797 98.5211 27.9781 98.8743 27.8043C99.2275 27.6145 99.533 27.3765 99.7908 27.0901C100.049 26.7877 100.251 26.445 100.397 26.0619C100.544 25.6788 100.618 25.2633 100.621 24.8153ZM109.963 26.9384C109.969 25.9785 109.861 25.2978 109.64 24.8963C109.434 24.479 109.132 24.2691 108.732 24.2666C108.492 24.2651 108.283 24.3278 108.107 24.4546C107.946 24.5816 107.809 24.7488 107.695 24.9561C107.582 25.1633 107.493 25.4028 107.427 25.6744C107.361 25.93 107.32 26.1937 107.302 26.4656L107.253 34.1694L103.797 34.1476L103.873 22.1478L107.329 22.1697L107.321 23.4177C107.693 22.86 108.111 22.5026 108.576 22.3456C109.041 22.1725 109.482 22.0873 109.898 22.0899C110.346 22.0928 110.769 22.1674 111.168 22.314C111.583 22.4606 111.942 22.7109 112.243 23.0648C112.561 23.4028 112.806 23.8604 112.979 24.4375C113.151 24.9986 113.235 25.6951 113.23 26.5271C113.228 26.7351 113.219 26.999 113.201 27.3189C113.199 27.6229 113.189 27.9349 113.171 28.2548C113.153 28.5746 113.135 28.8865 113.117 29.1904C113.115 29.4944 113.113 29.7504 113.112 29.9584C113.107 30.6464 113.176 31.1668 113.318 31.5198C113.46 31.8567 113.779 32.0267 114.275 32.0298C114.819 32.0333 115.196 31.8356 115.407 31.437C115.633 31.0384 115.812 30.5355 115.944 29.9283L116.952 29.9347C116.818 30.8939 116.621 31.6687 116.361 32.259C116.102 32.8334 115.811 33.2796 115.489 33.5975C115.167 33.8995 114.822 34.1053 114.453 34.215C114.084 34.3087 113.724 34.3544 113.372 34.3522C112.14 34.3444 111.247 33.9307 110.692 33.1112C110.153 32.2917 109.888 31.202 109.897 29.8421C109.897 29.6981 109.899 29.4981 109.9 29.2421C109.918 28.9702 109.928 28.6902 109.93 28.4023C109.931 28.1143 109.933 27.8423 109.935 27.5863C109.953 27.3144 109.962 27.0984 109.963 26.9384ZM121.75 25.981C121.783 25.8532 121.8 25.7413 121.8 25.6453C121.817 25.5494 121.826 25.4215 121.827 25.2615C121.831 24.6055 121.738 24.1329 121.548 23.8437C121.374 23.5546 121.143 23.4091 120.855 23.4073C120.535 23.4052 120.254 23.5715 120.011 23.9059C119.785 24.2245 119.591 24.6393 119.428 25.1503C119.28 25.6454 119.165 26.2046 119.081 26.8281C119.013 27.4517 118.977 28.0595 118.973 28.6515C118.969 29.4035 119.013 30.0198 119.106 30.5003C119.215 30.981 119.372 31.3581 119.579 31.6314C119.785 31.9047 120.04 32.0983 120.343 32.2122C120.662 32.3262 121.022 32.3845 121.422 32.387C121.902 32.3901 122.318 32.3287 122.671 32.2029C123.04 32.0773 123.369 31.9113 123.658 31.7052C123.948 31.483 124.213 31.2287 124.455 30.9422C124.697 30.6397 124.931 30.3212 125.157 29.9866L125.973 29.9918C125.746 30.5504 125.47 31.0926 125.147 31.6186C124.839 32.1447 124.452 32.6142 123.986 33.0273C123.535 33.4404 122.997 33.773 122.371 34.0251C121.762 34.2772 121.049 34.4007 120.233 34.3956C119.561 34.3913 118.938 34.2914 118.363 34.0957C117.788 33.8841 117.286 33.5609 116.857 33.1262C116.444 32.6756 116.12 32.0975 115.884 31.392C115.664 30.6866 115.558 29.8379 115.564 28.8459C115.568 28.1739 115.637 27.4463 115.77 26.6632C115.919 25.8641 116.18 25.1297 116.552 24.4601C116.924 23.7904 117.424 23.2336 118.05 22.7895C118.693 22.3456 119.519 22.1268 120.527 22.1332C121.151 22.1371 121.662 22.2284 122.061 22.4069C122.476 22.5855 122.802 22.8116 123.041 23.0851C123.279 23.3426 123.445 23.6317 123.539 23.9523C123.633 24.2569 123.679 24.5532 123.678 24.8412C123.675 25.2572 123.585 25.6006 123.407 25.8715C123.245 26.1425 123.021 26.277 122.733 26.2752C122.605 26.2744 122.453 26.2494 122.277 26.2003C122.101 26.1512 121.926 26.0781 121.75 25.981ZM128.657 22.3046L128.605 30.4644C128.601 31.1364 128.686 31.585 128.861 31.8101C129.051 32.0193 129.379 32.1254 129.843 32.1283C130.307 32.1312 130.692 31.9337 130.998 31.5356C131.321 31.1376 131.508 30.6348 131.56 30.0271L132.568 30.0335C132.434 31.0087 132.205 31.7912 131.881 32.3812C131.557 32.9552 131.195 33.4009 130.793 33.7183C130.391 34.0198 129.981 34.2172 129.565 34.3106C129.148 34.404 128.78 34.4496 128.46 34.4476C127.228 34.4398 126.366 34.0984 125.874 33.4232C125.383 32.7321 125.14 31.8266 125.147 30.7066L125.201 22.2827L128.657 22.3046ZM124.957 19.0891C124.96 18.5611 125.147 18.1143 125.517 17.7487C125.888 17.367 126.337 17.1778 126.865 17.1812C127.393 17.1845 127.84 17.3793 128.205 17.7657C128.587 18.1361 128.776 18.5853 128.773 19.1133C128.77 19.6413 128.575 20.088 128.188 20.4536C127.818 20.8193 127.369 21.0004 126.841 20.9971C126.313 20.9938 125.866 20.8069 125.5 20.4366C125.135 20.0663 124.954 19.6171 124.957 19.0891ZM136.328 22.2331C137.32 22.2394 138.126 22.4925 138.747 22.9925C139.368 23.4764 139.811 24.2472 140.076 25.3049C140.221 25.2258 140.35 25.1226 140.462 24.9954C140.591 24.8522 140.696 24.7088 140.777 24.5653C140.874 24.4059 140.955 24.2545 141.02 24.1109C141.085 23.9673 141.134 23.8476 141.166 23.7518L141.934 23.7566C141.869 23.9962 141.787 24.2597 141.689 24.5471C141.607 24.8346 141.502 25.1219 141.372 25.4091C141.258 25.6804 141.112 25.9435 140.935 26.1984C140.757 26.4532 140.54 26.6759 140.283 26.8663C140.298 27.0263 140.304 27.1944 140.303 27.3704C140.318 27.5305 140.325 27.6985 140.324 27.8745C140.318 28.8025 140.233 29.674 140.068 30.489C139.903 31.2879 139.626 31.9902 139.238 32.5958C138.867 33.1854 138.384 33.6544 137.789 34.0026C137.195 34.3349 136.466 34.4983 135.602 34.4928C135.01 34.489 134.443 34.3975 133.9 34.218C133.373 34.0227 132.903 33.7157 132.49 33.2971C132.076 32.8625 131.744 32.3003 131.492 31.6107C131.257 30.9052 131.142 30.0485 131.149 29.0405C131.153 28.3525 131.23 27.617 131.379 26.8339C131.528 26.0348 131.796 25.2925 132.185 24.607C132.573 23.9214 133.097 23.3567 133.755 22.9129C134.43 22.4531 135.288 22.2266 136.328 22.2331ZM136.288 32.2411C136.624 32.2432 136.913 32.133 137.155 31.9106C137.412 31.6722 137.622 31.3535 137.785 30.9545C137.947 30.5396 138.062 30.0523 138.13 29.4927C138.213 28.9332 138.257 28.3255 138.261 27.6695L138.264 27.3335C137.624 27.1854 137.307 26.7114 137.312 25.9114C137.316 25.3995 137.526 25.0648 137.943 24.9074C137.77 24.3943 137.556 24.0649 137.301 23.9193C137.062 23.7578 136.855 23.6765 136.679 23.6754C136.327 23.6732 136.022 23.8392 135.763 24.1736C135.521 24.4921 135.319 24.9068 135.156 25.4178C134.992 25.9128 134.869 26.464 134.785 27.0715C134.717 27.6791 134.682 28.2628 134.678 28.8228C134.673 29.5428 134.718 30.1271 134.811 30.5757C134.92 31.0244 135.054 31.3693 135.212 31.6103C135.371 31.8513 135.546 32.0204 135.737 32.1176C135.929 32.1988 136.112 32.24 136.288 32.2411Z" fill="white"/>
<path d="M152.912 34.576C151.728 34.576 150.704 34.152 149.84 33.304C148.992 32.44 148.568 31.416 148.568 30.232C148.568 29.016 148.992 27.984 149.84 27.136C150.704 26.272 151.728 25.84 152.912 25.84C154.128 25.84 155.16 26.272 156.008 27.136C156.856 27.984 157.28 29.016 157.28 30.232C157.28 31.416 156.856 32.44 156.008 33.304C155.16 34.152 154.128 34.576 152.912 34.576Z" fill="#FC4A60"/>
</svg>
