<svg width="227" height="85" viewBox="0 0 227 85" fill="none" xmlns="http://www.w3.org/2000/svg">
<path d="M167.096 4.74889e-10C166.944 -4.56202e-06 166.793 0.0333294 166.654 0.0978778C166.515 0.162426 166.39 0.256773 166.287 0.374908C166.184 0.493042 166.106 0.632373 166.057 0.784021C166.009 0.93567 165.991 1.09631 166.004 1.25571L169.861 46.6817C169.88 46.9137 169.966 47.1339 170.107 47.3135C170.248 47.4931 170.437 47.6235 170.65 47.6877L188.192 52.9558C188.388 53.0147 188.597 53.0147 188.793 52.9558L206.352 47.6877C206.565 47.6235 206.754 47.4931 206.895 47.3135C207.036 47.1339 207.122 46.9137 207.141 46.6817L210.996 1.25571C211.009 1.09631 210.991 0.93567 210.943 0.784021C210.894 0.632373 210.816 0.493042 210.713 0.374908C210.61 0.256773 210.485 0.162426 210.346 0.0978778C210.207 0.0333294 210.056 -4.59403e-06 209.904 4.74889e-10H167.096ZM168.294 2.30438H208.706L205.027 45.6893L188.494 50.6514L171.977 45.6893L168.294 2.30438ZM181.926 9.21753C181.635 9.21756 181.357 9.33896 181.151 9.55503C180.946 9.7711 180.83 10.0641 180.83 10.3697V31.8338L174.549 30.0042C174.387 29.9567 174.216 29.9494 174.05 29.9829C173.884 30.0163 173.728 30.0896 173.593 30.197C173.459 30.3044 173.35 30.443 173.275 30.602C173.2 30.761 173.161 30.9361 173.161 31.1137V36.8116C173.161 37.0633 173.239 37.308 173.384 37.5084C173.529 37.7087 173.732 37.8537 173.963 37.921L186.015 41.4361C186.178 41.4836 186.349 41.4909 186.515 41.4575C186.681 41.424 186.837 41.3508 186.971 41.2434C187.106 41.136 187.215 40.9974 187.29 40.8384C187.365 40.6793 187.404 40.5042 187.404 40.3267V10.3697C187.404 10.0641 187.289 9.7711 187.083 9.55503C186.878 9.33896 186.599 9.21756 186.309 9.21753H181.926ZM190.691 9.21753C190.401 9.21756 190.122 9.33896 189.917 9.55503C189.711 9.7711 189.596 10.0641 189.596 10.3697V29.957C189.596 30.1249 189.63 30.2909 189.698 30.4432C189.765 30.5955 189.863 30.7306 189.985 30.8388C190.107 30.9471 190.25 31.026 190.405 31.0699C190.559 31.1139 190.72 31.1219 190.878 31.0934L197.176 29.9525L197.045 31.9936L190.4 33.9154C190.169 33.9823 189.965 34.1271 189.82 34.3275C189.675 34.5278 189.596 34.7728 189.596 35.0248V40.3267C189.596 40.5042 189.634 40.6793 189.709 40.8384C189.784 40.9974 189.893 41.1362 190.027 41.2438C190.161 41.3514 190.317 41.4249 190.483 41.4587C190.649 41.4924 190.82 41.4855 190.982 41.4384L201.939 38.2698C202.155 38.2072 202.347 38.0766 202.49 37.8956C202.634 37.7145 202.72 37.4917 202.739 37.2572L203.895 23.1428C203.909 22.9701 203.886 22.7963 203.828 22.6343C203.769 22.4722 203.676 22.3262 203.557 22.207C203.437 22.0878 203.293 21.9986 203.136 21.9459C202.979 21.8933 202.813 21.8786 202.65 21.9029L196.17 22.8683V16.1307H203.461C203.735 16.1306 203.999 16.0224 204.201 15.8274C204.403 15.6324 204.528 15.3648 204.552 15.0775L204.931 10.4687C204.944 10.3097 204.925 10.1495 204.876 9.99843C204.827 9.84732 204.749 9.70855 204.647 9.59092C204.544 9.47328 204.419 9.37935 204.28 9.31507C204.141 9.25079 203.991 9.21758 203.839 9.21753H190.691ZM183.022 11.5219H185.213V38.8122L175.352 35.9362V32.6282L181.633 34.46C181.795 34.5074 181.966 34.5148 182.132 34.4813C182.298 34.4479 182.454 34.3746 182.589 34.2672C182.723 34.1598 182.832 34.0212 182.907 33.8622C182.982 33.7032 183.021 33.5281 183.022 33.3505V11.5219ZM191.787 11.5219H202.645L202.455 13.8263H195.074C194.783 13.8263 194.505 13.9477 194.299 14.1638C194.094 14.3799 193.978 14.6729 193.978 14.9785V24.196C193.978 24.361 194.012 24.5241 194.077 24.6742C194.142 24.8244 194.237 24.958 194.356 25.0662C194.474 25.1744 194.613 25.2545 194.764 25.3013C194.914 25.348 195.073 25.3601 195.228 25.3369L201.595 24.3873L200.621 36.2603L191.787 38.8144V35.9047L198.378 33.9986C198.597 33.9352 198.792 33.8017 198.936 33.6167C199.08 33.4316 199.165 33.2041 199.181 32.9657L199.455 28.645C199.466 28.4709 199.439 28.2965 199.377 28.1348C199.315 27.9731 199.218 27.8284 199.095 27.7116C198.972 27.5948 198.825 27.509 198.666 27.4605C198.506 27.4121 198.338 27.4024 198.175 27.432L191.787 28.5887V11.5219Z" fill="#242038"/>
<path d="M170.464 66.832C170.464 67.32 170.402 67.764 170.278 68.164C170.158 68.564 169.974 68.908 169.726 69.196C169.482 69.48 169.174 69.702 168.802 69.862C168.43 70.018 167.992 70.096 167.488 70.096C167.26 70.096 167.034 70.084 166.81 70.06C166.59 70.036 166.36 69.996 166.12 69.94L166.228 68.758C166.24 68.654 166.282 68.57 166.354 68.506C166.426 68.442 166.528 68.41 166.66 68.41C166.728 68.41 166.812 68.422 166.912 68.446C167.012 68.466 167.132 68.476 167.272 68.476C167.468 68.476 167.638 68.45 167.782 68.398C167.93 68.342 168.052 68.252 168.148 68.128C168.244 68 168.316 67.834 168.364 67.63C168.412 67.426 168.436 67.174 168.436 66.874V61.258H170.464V66.832ZM175.227 67.468C174.855 67.484 174.549 67.516 174.309 67.564C174.069 67.612 173.879 67.672 173.739 67.744C173.599 67.816 173.501 67.898 173.445 67.99C173.393 68.082 173.367 68.182 173.367 68.29C173.367 68.502 173.425 68.652 173.541 68.74C173.657 68.824 173.827 68.866 174.051 68.866C174.291 68.866 174.501 68.824 174.681 68.74C174.861 68.656 175.043 68.52 175.227 68.332V67.468ZM171.879 64.642C172.255 64.31 172.671 64.064 173.127 63.904C173.587 63.74 174.079 63.658 174.603 63.658C174.979 63.658 175.317 63.72 175.617 63.844C175.921 63.964 176.177 64.134 176.385 64.354C176.597 64.57 176.759 64.828 176.871 65.128C176.983 65.428 177.039 65.756 177.039 66.112V70H176.187C176.011 70 175.877 69.976 175.785 69.928C175.697 69.88 175.623 69.78 175.563 69.628L175.431 69.286C175.275 69.418 175.125 69.534 174.981 69.634C174.837 69.734 174.687 69.82 174.531 69.892C174.379 69.96 174.215 70.01 174.039 70.042C173.867 70.078 173.675 70.096 173.463 70.096C173.179 70.096 172.921 70.06 172.689 69.988C172.457 69.912 172.259 69.802 172.095 69.658C171.935 69.514 171.811 69.336 171.723 69.124C171.635 68.908 171.591 68.66 171.591 68.38C171.591 68.156 171.647 67.93 171.759 67.702C171.871 67.47 172.065 67.26 172.341 67.072C172.617 66.88 172.989 66.72 173.457 66.592C173.925 66.464 174.515 66.392 175.227 66.376V66.112C175.227 65.748 175.151 65.486 174.999 65.326C174.851 65.162 174.639 65.08 174.363 65.08C174.143 65.08 173.963 65.104 173.823 65.152C173.683 65.2 173.557 65.254 173.445 65.314C173.337 65.374 173.231 65.428 173.127 65.476C173.023 65.524 172.899 65.548 172.755 65.548C172.627 65.548 172.519 65.516 172.431 65.452C172.343 65.388 172.271 65.312 172.215 65.224L171.879 64.642ZM184.286 63.778L181.874 70H180.182L177.77 63.778H179.318C179.45 63.778 179.56 63.81 179.648 63.874C179.74 63.934 179.802 64.01 179.834 64.102L180.698 66.892C180.774 67.12 180.84 67.342 180.896 67.558C180.956 67.774 181.008 67.99 181.052 68.206C181.14 67.774 181.262 67.336 181.418 66.892L182.318 64.102C182.35 64.01 182.41 63.934 182.498 63.874C182.586 63.81 182.69 63.778 182.81 63.778H184.286ZM188.299 67.468C187.927 67.484 187.621 67.516 187.381 67.564C187.141 67.612 186.951 67.672 186.811 67.744C186.671 67.816 186.573 67.898 186.517 67.99C186.465 68.082 186.439 68.182 186.439 68.29C186.439 68.502 186.497 68.652 186.613 68.74C186.729 68.824 186.899 68.866 187.123 68.866C187.363 68.866 187.573 68.824 187.753 68.74C187.933 68.656 188.115 68.52 188.299 68.332V67.468ZM184.951 64.642C185.327 64.31 185.743 64.064 186.199 63.904C186.659 63.74 187.151 63.658 187.675 63.658C188.051 63.658 188.389 63.72 188.689 63.844C188.993 63.964 189.249 64.134 189.457 64.354C189.669 64.57 189.831 64.828 189.943 65.128C190.055 65.428 190.111 65.756 190.111 66.112V70H189.259C189.083 70 188.949 69.976 188.857 69.928C188.769 69.88 188.695 69.78 188.635 69.628L188.503 69.286C188.347 69.418 188.197 69.534 188.053 69.634C187.909 69.734 187.759 69.82 187.603 69.892C187.451 69.96 187.287 70.01 187.111 70.042C186.939 70.078 186.747 70.096 186.535 70.096C186.251 70.096 185.993 70.06 185.761 69.988C185.529 69.912 185.331 69.802 185.167 69.658C185.007 69.514 184.883 69.336 184.795 69.124C184.707 68.908 184.663 68.66 184.663 68.38C184.663 68.156 184.719 67.93 184.831 67.702C184.943 67.47 185.137 67.26 185.413 67.072C185.689 66.88 186.061 66.72 186.529 66.592C186.997 66.464 187.587 66.392 188.299 66.376V66.112C188.299 65.748 188.223 65.486 188.071 65.326C187.923 65.162 187.711 65.08 187.435 65.08C187.215 65.08 187.035 65.104 186.895 65.152C186.755 65.2 186.629 65.254 186.517 65.314C186.409 65.374 186.303 65.428 186.199 65.476C186.095 65.524 185.971 65.548 185.827 65.548C185.699 65.548 185.591 65.516 185.503 65.452C185.415 65.388 185.343 65.312 185.287 65.224L184.951 64.642ZM196.636 63.034C196.576 63.13 196.512 63.202 196.444 63.25C196.38 63.298 196.296 63.322 196.192 63.322C196.1 63.322 196 63.294 195.892 63.238C195.788 63.178 195.668 63.112 195.532 63.04C195.4 62.968 195.248 62.904 195.076 62.848C194.904 62.788 194.708 62.758 194.488 62.758C194.108 62.758 193.824 62.84 193.636 63.004C193.452 63.164 193.36 63.382 193.36 63.658C193.36 63.834 193.416 63.98 193.528 64.096C193.64 64.212 193.786 64.312 193.966 64.396C194.15 64.48 194.358 64.558 194.59 64.63C194.826 64.698 195.066 64.776 195.31 64.864C195.554 64.948 195.792 65.048 196.024 65.164C196.26 65.28 196.468 65.428 196.648 65.608C196.832 65.788 196.98 66.008 197.092 66.268C197.204 66.524 197.26 66.834 197.26 67.198C197.26 67.602 197.19 67.98 197.05 68.332C196.91 68.684 196.706 68.992 196.438 69.256C196.174 69.516 195.846 69.722 195.454 69.874C195.066 70.022 194.624 70.096 194.128 70.096C193.856 70.096 193.578 70.068 193.294 70.012C193.014 69.956 192.742 69.878 192.478 69.778C192.214 69.674 191.966 69.552 191.734 69.412C191.502 69.272 191.3 69.116 191.128 68.944L191.728 67.996C191.776 67.928 191.838 67.872 191.914 67.828C191.994 67.78 192.08 67.756 192.172 67.756C192.292 67.756 192.412 67.794 192.532 67.87C192.656 67.946 192.794 68.03 192.946 68.122C193.102 68.214 193.28 68.298 193.48 68.374C193.68 68.45 193.916 68.488 194.188 68.488C194.556 68.488 194.842 68.408 195.046 68.248C195.25 68.084 195.352 67.826 195.352 67.474C195.352 67.27 195.296 67.104 195.184 66.976C195.072 66.848 194.924 66.742 194.74 66.658C194.56 66.574 194.354 66.5 194.122 66.436C193.89 66.372 193.652 66.302 193.408 66.226C193.164 66.146 192.926 66.05 192.694 65.938C192.462 65.822 192.254 65.672 192.07 65.488C191.89 65.3 191.744 65.068 191.632 64.792C191.52 64.512 191.464 64.168 191.464 63.76C191.464 63.432 191.53 63.112 191.662 62.8C191.794 62.488 191.988 62.21 192.244 61.966C192.5 61.722 192.814 61.528 193.186 61.384C193.558 61.236 193.984 61.162 194.464 61.162C194.732 61.162 194.992 61.184 195.244 61.228C195.5 61.268 195.742 61.33 195.97 61.414C196.198 61.494 196.41 61.592 196.606 61.708C196.806 61.82 196.984 61.948 197.14 62.092L196.636 63.034ZM203.166 65.254C203.11 65.322 203.056 65.376 203.004 65.416C202.952 65.456 202.878 65.476 202.782 65.476C202.69 65.476 202.606 65.454 202.53 65.41C202.458 65.366 202.376 65.318 202.284 65.266C202.192 65.21 202.084 65.16 201.96 65.116C201.836 65.072 201.682 65.05 201.498 65.05C201.27 65.05 201.072 65.092 200.904 65.176C200.74 65.26 200.604 65.38 200.496 65.536C200.388 65.692 200.308 65.884 200.256 66.112C200.204 66.336 200.178 66.59 200.178 66.874C200.178 67.47 200.292 67.928 200.52 68.248C200.752 68.568 201.07 68.728 201.474 68.728C201.69 68.728 201.86 68.702 201.984 68.65C202.112 68.594 202.22 68.534 202.308 68.47C202.396 68.402 202.476 68.34 202.548 68.284C202.624 68.228 202.718 68.2 202.83 68.2C202.978 68.2 203.09 68.254 203.166 68.362L203.706 69.028C203.514 69.248 203.312 69.428 203.1 69.568C202.888 69.704 202.67 69.812 202.446 69.892C202.226 69.968 202.004 70.02 201.78 70.048C201.556 70.08 201.338 70.096 201.126 70.096C200.746 70.096 200.382 70.024 200.034 69.88C199.69 69.736 199.386 69.528 199.122 69.256C198.862 68.98 198.654 68.642 198.498 68.242C198.346 67.842 198.27 67.386 198.27 66.874C198.27 66.426 198.336 66.008 198.468 65.62C198.604 65.228 198.802 64.89 199.062 64.606C199.326 64.318 199.65 64.092 200.034 63.928C200.422 63.764 200.87 63.682 201.378 63.682C201.866 63.682 202.294 63.76 202.662 63.916C203.03 64.072 203.362 64.3 203.658 64.6L203.166 65.254ZM206.53 64.738C206.722 64.402 206.942 64.138 207.19 63.946C207.442 63.754 207.73 63.658 208.054 63.658C208.334 63.658 208.562 63.724 208.738 63.856L208.618 65.224C208.598 65.312 208.564 65.372 208.516 65.404C208.472 65.436 208.41 65.452 208.33 65.452C208.298 65.452 208.256 65.45 208.204 65.446C208.152 65.442 208.098 65.438 208.042 65.434C207.986 65.426 207.928 65.42 207.868 65.416C207.812 65.408 207.76 65.404 207.712 65.404C207.44 65.404 207.222 65.476 207.058 65.62C206.898 65.764 206.762 65.964 206.65 66.22V70H204.79V63.778H205.894C205.986 63.778 206.062 63.786 206.122 63.802C206.186 63.818 206.238 63.844 206.278 63.88C206.322 63.912 206.354 63.956 206.374 64.012C206.398 64.068 206.418 64.136 206.434 64.216L206.53 64.738ZM211.634 63.778V70H209.774V63.778H211.634ZM211.826 62.074C211.826 62.222 211.796 62.362 211.736 62.494C211.676 62.622 211.594 62.736 211.49 62.836C211.386 62.932 211.264 63.01 211.124 63.07C210.988 63.126 210.842 63.154 210.686 63.154C210.534 63.154 210.392 63.126 210.26 63.07C210.128 63.01 210.01 62.932 209.906 62.836C209.806 62.736 209.726 62.622 209.666 62.494C209.61 62.362 209.582 62.222 209.582 62.074C209.582 61.922 209.61 61.78 209.666 61.648C209.726 61.516 209.806 61.4 209.906 61.3C210.01 61.2 210.128 61.122 210.26 61.066C210.392 61.01 210.534 60.982 210.686 60.982C210.842 60.982 210.988 61.01 211.124 61.066C211.264 61.122 211.386 61.2 211.49 61.3C211.594 61.4 211.676 61.516 211.736 61.648C211.796 61.78 211.826 61.922 211.826 62.074ZM215.151 68.308C215.291 68.46 215.443 68.568 215.607 68.632C215.771 68.696 215.943 68.728 216.123 68.728C216.295 68.728 216.453 68.694 216.597 68.626C216.741 68.558 216.865 68.45 216.969 68.302C217.077 68.15 217.161 67.954 217.221 67.714C217.281 67.474 217.311 67.182 217.311 66.838C217.311 66.51 217.287 66.234 217.239 66.01C217.191 65.786 217.123 65.606 217.035 65.47C216.951 65.33 216.849 65.23 216.729 65.17C216.609 65.11 216.475 65.08 216.327 65.08C216.055 65.08 215.831 65.13 215.655 65.23C215.479 65.33 215.311 65.476 215.151 65.668V68.308ZM215.037 64.546C215.281 64.286 215.557 64.074 215.865 63.91C216.177 63.742 216.547 63.658 216.975 63.658C217.299 63.658 217.599 63.73 217.875 63.874C218.151 64.018 218.389 64.226 218.589 64.498C218.789 64.77 218.945 65.104 219.057 65.5C219.173 65.892 219.231 66.338 219.231 66.838C219.231 67.306 219.165 67.738 219.033 68.134C218.905 68.53 218.723 68.874 218.487 69.166C218.255 69.458 217.975 69.686 217.647 69.85C217.323 70.014 216.963 70.096 216.567 70.096C216.243 70.096 215.971 70.05 215.751 69.958C215.531 69.866 215.331 69.742 215.151 69.586V71.974H213.291V63.778H214.443C214.675 63.778 214.827 63.882 214.899 64.09L215.037 64.546ZM222.686 70.096C222.39 70.096 222.128 70.054 221.9 69.97C221.676 69.882 221.486 69.76 221.33 69.604C221.178 69.444 221.062 69.252 220.982 69.028C220.902 68.804 220.862 68.554 220.862 68.278V65.062H220.334C220.238 65.062 220.156 65.032 220.088 64.972C220.02 64.908 219.986 64.816 219.986 64.696V63.97L220.976 63.778L221.342 62.26C221.39 62.068 221.526 61.972 221.75 61.972H222.722V63.79H224.264V65.062H222.722V68.152C222.722 68.296 222.756 68.416 222.824 68.512C222.896 68.604 222.998 68.65 223.13 68.65C223.198 68.65 223.254 68.644 223.298 68.632C223.346 68.616 223.386 68.6 223.418 68.584C223.454 68.564 223.486 68.548 223.514 68.536C223.546 68.52 223.582 68.512 223.622 68.512C223.678 68.512 223.722 68.526 223.754 68.554C223.79 68.578 223.826 68.618 223.862 68.674L224.426 69.556C224.186 69.736 223.916 69.872 223.616 69.964C223.316 70.052 223.006 70.096 222.686 70.096Z" fill="#242038"/>
<path d="M83.9569 0C83.3543 0.120219 82.9389 0.736342 83.0074 1.40256L87.1341 51.9747C87.1889 52.4906 87.5222 52.9164 87.9741 53.0567L106.672 58.9474C106.887 59.0175 107.115 59.0175 107.33 58.9474L126.028 53.0567C126.48 52.9164 126.813 52.4906 126.868 51.9747L130.995 1.40256C131.027 1.0419 130.917 0.68625 130.693 0.415758C130.47 0.150274 130.155 0 129.826 0H84.176C84.1395 0 84.103 0 84.0665 0C84.0299 0 83.9934 0 83.9569 0ZM85.4542 2.56467H128.548L124.64 50.8527L107.001 56.3427L89.3618 50.8527L85.4542 2.56467ZM92.4295 10.3388C91.8269 10.4591 91.4115 11.0752 91.48 11.7414L93.0504 30.6959C93.0869 31.3571 93.5799 31.8781 94.1825 31.8981H112.844L112.333 37.7889L107.037 39.0311L101.669 37.7889L101.486 35.7051C101.45 35.0288 100.934 34.5029 100.318 34.5029H94.6207C94.292 34.5029 93.977 34.6531 93.7534 34.9186C93.5297 35.1891 93.4201 35.5448 93.4521 35.9054L94.1094 43.7597C94.1459 44.2757 94.4609 44.7215 94.9129 44.8818L106.526 48.7689L106.672 48.8089C106.887 48.8791 107.115 48.8791 107.33 48.8089L119.089 44.8818C119.555 44.7365 119.888 44.2907 119.929 43.7597L121.463 24.4846C121.495 24.129 121.39 23.7783 121.175 23.5128C120.961 23.2474 120.655 23.0921 120.331 23.0821H100.427L100.135 19.1148H120.842C121.449 19.1198 121.956 18.6139 122.011 17.9527L122.522 11.7414C122.554 11.3807 122.444 11.0251 122.221 10.7546C121.997 10.4891 121.682 10.3388 121.353 10.3388H92.6486C92.5756 10.3288 92.5026 10.3288 92.4295 10.3388ZM93.9268 12.9035H120.075L119.783 16.5502H98.857C98.5283 16.5502 98.2134 16.7004 97.9897 16.9659C97.766 17.2364 97.6564 17.5921 97.6884 17.9527L98.2362 24.4846C98.291 25.1308 98.7794 25.6317 99.3683 25.6467H119.053L117.665 42.6778L107.001 46.2042L96.3371 42.6778L95.8989 37.0675H99.2587L99.4048 38.951C99.4413 39.517 99.8111 39.9879 100.318 40.1131L106.818 41.5958C106.974 41.6309 107.138 41.6309 107.293 41.5958L113.684 40.1131C114.191 39.9879 114.561 39.517 114.597 38.951L115.291 30.6959C115.309 30.3403 115.195 29.9947 114.976 29.7392C114.752 29.4787 114.446 29.3334 114.122 29.3334H95.2415L93.9268 12.9035Z" fill="#242038"/>
<path d="M98.478 65.5115V74.2535H96.438V70.5575H92.886V74.2535H90.846V65.5115H92.886V69.1655H96.438V65.5115H98.478ZM106.816 67.1195H104.356V74.2535H102.328V67.1195H99.8681V65.5115H106.816V67.1195ZM118.035 65.5115V74.2535H116.247V69.2255C116.247 69.1095 116.249 68.9835 116.253 68.8475C116.261 68.7115 116.273 68.5735 116.289 68.4335L113.967 72.9275C113.895 73.0675 113.797 73.1735 113.673 73.2455C113.553 73.3175 113.415 73.3535 113.259 73.3535H112.983C112.827 73.3535 112.687 73.3175 112.563 73.2455C112.443 73.1735 112.347 73.0675 112.275 72.9275L109.953 68.4215C109.965 68.5655 109.975 68.7075 109.983 68.8475C109.991 68.9835 109.995 69.1095 109.995 69.2255V74.2535H108.207V65.5115H109.755C109.843 65.5115 109.919 65.5135 109.983 65.5175C110.051 65.5215 110.111 65.5335 110.163 65.5535C110.215 65.5735 110.261 65.6055 110.301 65.6495C110.345 65.6895 110.387 65.7475 110.427 65.8235L112.677 70.2575C112.757 70.4095 112.833 70.5675 112.905 70.7315C112.981 70.8955 113.053 71.0635 113.121 71.2355C113.189 71.0595 113.259 70.8875 113.331 70.7195C113.407 70.5515 113.487 70.3915 113.571 70.2395L115.815 65.8235C115.855 65.7475 115.895 65.6895 115.935 65.6495C115.979 65.6055 116.027 65.5735 116.079 65.5535C116.131 65.5335 116.189 65.5215 116.253 65.5175C116.321 65.5135 116.399 65.5115 116.487 65.5115H118.035ZM125.354 72.6335V74.2535H120.086V65.5115H122.114V72.6335H125.354Z" fill="#242038"/>
<path fill-rule="evenodd" clip-rule="evenodd" d="M43.7647 51.8947L24 58L4.23529 51.8947L0 0H48C46.5882 17.2963 45.1765 34.5985 43.7647 51.8947ZM44.9173 3.05263H3.08272L6.87684 49.5337L24 54.8281L41.1232 49.5337L44.9173 3.05263ZM12.4246 33.5789H18.0717L18.2096 37.3947L24 39.5292L29.7904 37.3947L30.2096 30.5263H17.7904L17.5037 24.4211H30.4963L30.9154 18.3158H11.4375L11.0129 12.2105H36.8493L36.1434 24.4211L35.1507 41.9737L24 45.9445L12.8493 41.9737L12.4246 33.5789Z" fill="#242038"/>
<path d="M16.15 74.738C16.198 74.738 16.246 74.748 16.294 74.768C16.342 74.784 16.388 74.814 16.432 74.858L17.236 75.704C16.884 76.164 16.442 76.512 15.91 76.748C15.382 76.98 14.756 77.096 14.032 77.096C13.368 77.096 12.772 76.984 12.244 76.76C11.72 76.532 11.274 76.22 10.906 75.824C10.542 75.424 10.262 74.952 10.066 74.408C9.87003 73.86 9.77203 73.266 9.77203 72.626C9.77203 71.974 9.87803 71.376 10.09 70.832C10.302 70.284 10.6 69.812 10.984 69.416C11.368 69.02 11.828 68.712 12.364 68.492C12.9 68.272 13.49 68.162 14.134 68.162C14.462 68.162 14.77 68.192 15.058 68.252C15.35 68.308 15.622 68.388 15.874 68.492C16.126 68.592 16.358 68.714 16.57 68.858C16.782 69.002 16.97 69.158 17.134 69.326L16.45 70.244C16.406 70.3 16.354 70.352 16.294 70.4C16.234 70.444 16.15 70.466 16.042 70.466C15.97 70.466 15.902 70.45 15.838 70.418C15.774 70.386 15.706 70.348 15.634 70.304C15.562 70.256 15.482 70.206 15.394 70.154C15.31 70.098 15.208 70.048 15.088 70.004C14.972 69.956 14.834 69.916 14.674 69.884C14.518 69.852 14.334 69.836 14.122 69.836C13.786 69.836 13.478 69.898 13.198 70.022C12.922 70.146 12.682 70.328 12.478 70.568C12.278 70.804 12.122 71.096 12.01 71.444C11.902 71.788 11.848 72.182 11.848 72.626C11.848 73.074 11.908 73.472 12.028 73.82C12.152 74.168 12.318 74.462 12.526 74.702C12.738 74.938 12.984 75.118 13.264 75.242C13.544 75.366 13.844 75.428 14.164 75.428C14.348 75.428 14.516 75.42 14.668 75.404C14.82 75.384 14.962 75.354 15.094 75.314C15.226 75.27 15.35 75.214 15.466 75.146C15.582 75.074 15.7 74.984 15.82 74.876C15.868 74.836 15.92 74.804 15.976 74.78C16.032 74.752 16.09 74.738 16.15 74.738ZM23.3113 70.034C23.2513 70.13 23.1873 70.202 23.1193 70.25C23.0553 70.298 22.9713 70.322 22.8673 70.322C22.7753 70.322 22.6753 70.294 22.5673 70.238C22.4633 70.178 22.3433 70.112 22.2073 70.04C22.0753 69.968 21.9233 69.904 21.7513 69.848C21.5793 69.788 21.3833 69.758 21.1633 69.758C20.7833 69.758 20.4993 69.84 20.3113 70.004C20.1273 70.164 20.0353 70.382 20.0353 70.658C20.0353 70.834 20.0913 70.98 20.2033 71.096C20.3153 71.212 20.4613 71.312 20.6413 71.396C20.8253 71.48 21.0333 71.558 21.2653 71.63C21.5013 71.698 21.7413 71.776 21.9853 71.864C22.2293 71.948 22.4673 72.048 22.6993 72.164C22.9353 72.28 23.1433 72.428 23.3233 72.608C23.5073 72.788 23.6553 73.008 23.7673 73.268C23.8793 73.524 23.9353 73.834 23.9353 74.198C23.9353 74.602 23.8653 74.98 23.7253 75.332C23.5853 75.684 23.3813 75.992 23.1133 76.256C22.8493 76.516 22.5213 76.722 22.1293 76.874C21.7413 77.022 21.2993 77.096 20.8033 77.096C20.5313 77.096 20.2533 77.068 19.9693 77.012C19.6893 76.956 19.4173 76.878 19.1533 76.778C18.8893 76.674 18.6413 76.552 18.4093 76.412C18.1773 76.272 17.9753 76.116 17.8033 75.944L18.4033 74.996C18.4513 74.928 18.5133 74.872 18.5893 74.828C18.6693 74.78 18.7553 74.756 18.8473 74.756C18.9673 74.756 19.0873 74.794 19.2073 74.87C19.3313 74.946 19.4693 75.03 19.6213 75.122C19.7773 75.214 19.9553 75.298 20.1553 75.374C20.3553 75.45 20.5913 75.488 20.8633 75.488C21.2313 75.488 21.5173 75.408 21.7213 75.248C21.9253 75.084 22.0273 74.826 22.0273 74.474C22.0273 74.27 21.9713 74.104 21.8593 73.976C21.7473 73.848 21.5993 73.742 21.4153 73.658C21.2353 73.574 21.0293 73.5 20.7973 73.436C20.5653 73.372 20.3273 73.302 20.0833 73.226C19.8393 73.146 19.6013 73.05 19.3693 72.938C19.1373 72.822 18.9293 72.672 18.7453 72.488C18.5653 72.3 18.4193 72.068 18.3073 71.792C18.1953 71.512 18.1393 71.168 18.1393 70.76C18.1393 70.432 18.2053 70.112 18.3373 69.8C18.4693 69.488 18.6633 69.21 18.9193 68.966C19.1753 68.722 19.4893 68.528 19.8613 68.384C20.2333 68.236 20.6593 68.162 21.1393 68.162C21.4073 68.162 21.6673 68.184 21.9193 68.228C22.1753 68.268 22.4173 68.33 22.6453 68.414C22.8733 68.494 23.0853 68.592 23.2813 68.708C23.4813 68.82 23.6593 68.948 23.8153 69.092L23.3113 70.034ZM30.3158 70.034C30.2558 70.13 30.1918 70.202 30.1238 70.25C30.0598 70.298 29.9758 70.322 29.8718 70.322C29.7798 70.322 29.6798 70.294 29.5718 70.238C29.4678 70.178 29.3478 70.112 29.2118 70.04C29.0798 69.968 28.9278 69.904 28.7558 69.848C28.5838 69.788 28.3878 69.758 28.1678 69.758C27.7878 69.758 27.5038 69.84 27.3158 70.004C27.1318 70.164 27.0398 70.382 27.0398 70.658C27.0398 70.834 27.0958 70.98 27.2078 71.096C27.3198 71.212 27.4658 71.312 27.6458 71.396C27.8298 71.48 28.0378 71.558 28.2698 71.63C28.5058 71.698 28.7458 71.776 28.9898 71.864C29.2338 71.948 29.4718 72.048 29.7038 72.164C29.9398 72.28 30.1478 72.428 30.3278 72.608C30.5118 72.788 30.6598 73.008 30.7718 73.268C30.8838 73.524 30.9398 73.834 30.9398 74.198C30.9398 74.602 30.8698 74.98 30.7298 75.332C30.5898 75.684 30.3858 75.992 30.1178 76.256C29.8538 76.516 29.5258 76.722 29.1338 76.874C28.7458 77.022 28.3038 77.096 27.8078 77.096C27.5358 77.096 27.2578 77.068 26.9738 77.012C26.6938 76.956 26.4218 76.878 26.1578 76.778C25.8938 76.674 25.6458 76.552 25.4138 76.412C25.1818 76.272 24.9798 76.116 24.8078 75.944L25.4078 74.996C25.4558 74.928 25.5178 74.872 25.5938 74.828C25.6738 74.78 25.7598 74.756 25.8518 74.756C25.9718 74.756 26.0918 74.794 26.2118 74.87C26.3358 74.946 26.4738 75.03 26.6258 75.122C26.7818 75.214 26.9598 75.298 27.1598 75.374C27.3598 75.45 27.5958 75.488 27.8678 75.488C28.2358 75.488 28.5218 75.408 28.7258 75.248C28.9298 75.084 29.0318 74.826 29.0318 74.474C29.0318 74.27 28.9758 74.104 28.8638 73.976C28.7518 73.848 28.6038 73.742 28.4198 73.658C28.2398 73.574 28.0338 73.5 27.8018 73.436C27.5698 73.372 27.3318 73.302 27.0878 73.226C26.8438 73.146 26.6058 73.05 26.3738 72.938C26.1418 72.822 25.9338 72.672 25.7498 72.488C25.5698 72.3 25.4238 72.068 25.3118 71.792C25.1998 71.512 25.1438 71.168 25.1438 70.76C25.1438 70.432 25.2098 70.112 25.3418 69.8C25.4738 69.488 25.6678 69.21 25.9238 68.966C26.1798 68.722 26.4938 68.528 26.8658 68.384C27.2378 68.236 27.6638 68.162 28.1438 68.162C28.4118 68.162 28.6718 68.184 28.9238 68.228C29.1798 68.268 29.4218 68.33 29.6498 68.414C29.8778 68.494 30.0898 68.592 30.2858 68.708C30.4858 68.82 30.6638 68.948 30.8198 69.092L30.3158 70.034Z" fill="#242038"/>
</svg>
